<?xml version="1.0" standalone="no"?>
<!DOCTYPE svg PUBLIC "-//W3C//DTD SVG 20010904//EN"
 "http://www.w3.org/TR/2001/REC-SVG-20010904/DTD/svg10.dtd">
<svg version="1.0" xmlns="http://www.w3.org/2000/svg"
 width="1024.000000pt" height="1024.000000pt" viewBox="0 0 1024.000000 1024.000000"
 preserveAspectRatio="xMidYMid meet">
<metadata>
Created by potrace 1.14, written by Peter Selinger 2001-2017
</metadata>
<g transform="translate(0.000000,1024.000000) scale(0.100000,-0.100000)"
fill="#000000" stroke="none">
<path d="M4888 10234 c-2 -1 -59 -5 -128 -9 -69 -3 -138 -8 -155 -10 -16 -2
-52 -7 -80 -10 -27 -2 -59 -7 -71 -9 -12 -2 -45 -7 -75 -11 -30 -3 -67 -9 -84
-11 -16 -3 -41 -7 -55 -9 -14 -2 -45 -8 -70 -14 -25 -5 -61 -13 -80 -16 -19
-3 -75 -15 -123 -26 -49 -12 -96 -22 -105 -24 -9 -2 -17 -4 -17 -5 0 -1 -8 -3
-17 -5 -9 -2 -32 -8 -50 -14 -18 -6 -44 -12 -58 -15 -14 -3 -59 -16 -100 -31
-41 -14 -76 -26 -77 -26 -13 0 -216 -72 -303 -107 -47 -19 -107 -43 -135 -54
-134 -53 -578 -282 -625 -323 -8 -8 -17 -13 -20 -13 -8 2 -95 -54 -98 -63 -2
-5 -8 -9 -13 -9 -13 0 -133 -81 -137 -92 -2 -4 -8 -8 -13 -8 -8 0 -235 -163
-249 -179 -3 -3 -41 -35 -85 -71 -197 -160 -461 -417 -615 -600 -12 -14 -31
-36 -43 -50 -99 -113 -255 -322 -352 -471 -37 -57 -78 -120 -91 -140 -13 -19
-24 -40 -24 -46 0 -6 -4 -13 -8 -15 -5 -1 -20 -23 -34 -48 -14 -25 -41 -72
-60 -105 -18 -33 -40 -75 -47 -92 -7 -18 -17 -33 -22 -33 -5 0 -9 -5 -9 -12 0
-6 -22 -57 -49 -112 -60 -125 -95 -199 -95 -206 -1 -6 -26 -65 -57 -137 -11
-24 -19 -50 -19 -58 0 -8 -4 -15 -8 -15 -4 0 -8 -8 -9 -17 -1 -10 -11 -40 -22
-66 -12 -27 -21 -54 -21 -61 0 -7 -6 -26 -14 -42 -8 -16 -17 -40 -19 -54 -3
-14 -12 -45 -20 -70 -9 -25 -20 -63 -27 -85 -28 -99 -42 -152 -46 -173 -2 -12
-13 -59 -24 -105 -10 -45 -22 -97 -25 -115 -3 -18 -12 -63 -19 -100 -16 -74
-21 -108 -32 -197 -3 -33 -8 -69 -10 -80 -2 -11 -7 -47 -10 -80 -3 -33 -8 -71
-10 -85 -22 -131 -22 -796 0 -962 3 -18 8 -58 11 -88 4 -30 8 -62 10 -70 1 -8
5 -42 9 -75 3 -33 9 -74 12 -90 25 -147 48 -262 64 -325 11 -41 21 -86 23
-100 2 -14 6 -32 10 -40 3 -8 15 -53 27 -99 30 -117 124 -398 178 -531 5 -14
11 -29 12 -35 1 -5 8 -21 15 -35 18 -34 65 -139 65 -145 0 -12 168 -343 180
-355 3 -3 21 -35 40 -72 19 -37 38 -68 43 -68 4 0 7 -5 7 -11 0 -6 14 -31 30
-56 17 -24 30 -46 30 -48 0 -8 125 -190 132 -193 5 -2 8 -8 8 -13 0 -5 17 -32
38 -59 20 -27 60 -79 87 -115 62 -83 60 -80 174 -215 71 -84 104 -120 171
-191 31 -32 70 -73 87 -91 17 -18 75 -74 129 -124 134 -124 149 -137 194 -174
21 -17 49 -41 62 -52 13 -11 48 -39 78 -62 30 -22 57 -44 60 -47 11 -14 231
-169 239 -169 5 0 11 -4 13 -9 2 -4 41 -32 88 -61 47 -29 87 -56 90 -59 3 -4
16 -12 30 -19 14 -7 41 -22 60 -33 19 -12 58 -35 85 -50 59 -34 430 -219 438
-219 3 0 34 -13 69 -28 181 -81 601 -225 718 -246 36 -6 162 -37 180 -43 8 -4
18 -6 21 -5 3 1 48 -8 100 -19 52 -11 114 -22 139 -24 25 -3 72 -10 105 -16
167 -30 485 -53 745 -53 137 0 370 10 435 19 17 2 62 7 100 10 39 3 80 7 90 9
11 2 43 7 70 10 28 4 64 10 80 12 17 3 46 7 65 9 19 2 35 4 35 5 0 1 14 4 30
6 17 2 50 9 75 15 25 6 56 13 70 15 44 8 283 66 307 75 13 5 35 11 49 13 26 5
116 32 144 44 8 3 20 7 25 7 6 1 17 5 25 8 8 3 71 26 140 51 69 24 143 52 165
61 73 30 110 46 127 55 10 6 23 10 29 10 6 0 24 9 40 21 16 11 29 18 29 14 0
-3 73 32 163 78 221 114 251 131 255 140 2 4 8 7 13 7 30 0 406 254 604 407
12 10 130 109 205 172 135 115 444 434 575 596 31 39 64 79 74 90 47 57 251
347 285 405 8 14 35 57 60 95 25 39 46 74 46 79 0 5 6 17 14 25 7 9 34 54 59
101 223 418 356 760 472 1210 23 90 28 110 40 178 3 15 10 47 15 72 15 63 19
89 26 140 3 25 7 52 9 60 4 14 7 37 20 132 3 18 8 60 11 93 3 33 7 76 9 95 19
169 25 576 12 775 -10 162 -24 324 -32 359 -2 12 -7 41 -10 66 -3 25 -7 56 -9
70 -3 14 -7 41 -10 60 -3 19 -10 60 -17 90 -6 30 -12 65 -14 77 -2 11 -6 29
-9 40 -3 10 -8 34 -11 53 -3 19 -11 53 -17 75 -6 22 -12 45 -13 50 -2 8 -15
58 -39 150 -2 6 -5 17 -8 25 -3 8 -20 62 -37 120 -31 100 -109 322 -136 385
-7 17 -24 56 -39 88 -14 32 -26 60 -26 62 0 11 -162 334 -200 400 -22 39 -43
78 -46 88 -4 9 -10 17 -15 17 -5 0 -9 5 -9 11 0 36 -368 572 -425 619 -8 7
-15 16 -15 21 0 4 -10 19 -22 31 -13 13 -45 50 -73 83 -162 190 -467 489 -621
607 -16 12 -31 25 -34 28 -13 17 -221 170 -230 170 -5 0 -10 3 -10 8 0 4 -21
22 -47 40 -27 17 -57 38 -68 46 -42 29 -193 125 -227 144 -19 11 -46 26 -59
34 -13 7 -31 18 -39 24 -8 6 -60 35 -115 64 -55 29 -106 58 -114 64 -8 6 -16
10 -17 9 -2 -1 -60 25 -129 58 -70 32 -128 59 -131 59 -3 0 -30 11 -60 25 -30
14 -58 25 -62 25 -5 0 -26 9 -48 19 -37 18 -435 152 -451 152 -2 0 -33 9 -70
20 -124 35 -295 73 -468 104 -16 2 -41 7 -55 10 -14 3 -47 8 -75 10 -27 3 -61
7 -75 10 -14 3 -47 8 -75 11 -49 6 -79 9 -205 19 -70 6 -618 14 -622 9z"/>
</g>
</svg>
